<svg viewBox="0 0 284 79" width="50%" height="50%">
  <g id="main_text" rel="mainfill" name="main_text" feature="main_text" xmlns:name="mainText_mainfill" groupname="main_text" fill="#b93535" transform="translate(-0.38877481221884636, -13.083509626007565) scale(2.429842630679005)">
    <path
      d="M0.16 9.72 l3.48 0 l1.8 8.92 l2.22 -8.92 l3 0 l2.2 9.12 l1.94 -9.12 l3.18 0 l-0.14 0.61 t-0.38 1.62 t-0.55 2.29 t-0.63 2.62 t-0.63 2.63 t-0.56 2.29 t-0.4 1.61 l-0.15 0.61 l-3.4 0 l-2.1 -8.62 l-2.24 8.62 l-3.2 0 z M24.98 24.22 q-1.64 0 -2.79 -0.56 t-1.88 -1.54 t-1.07 -2.33 t-0.34 -2.95 t0.34 -2.95 t1.07 -2.32 t1.88 -1.51 t2.79 -0.54 t2.79 0.54 t1.88 1.51 t1.06 2.32 t0.33 2.95 t-0.33 2.95 t-1.06 2.33 t-1.88 1.54 t-2.79 0.56 z M24.98 21.42 q1.38 0 1.99 -1.14 t0.61 -3.44 t-0.59 -3.38 t-1.99 -1.08 q-1.42 0 -2.03 1.08 t-0.61 3.38 t0.61 3.44 t2.01 1.14 z M33.18000000000001 9.82 q0.96 -0.12 1.76 -0.19 t1.7 -0.07 q1.1 0 2.19 0.21 t1.95 0.73 t1.39 1.4 t0.53 2.24 q0 0.78 -0.21 1.4 t-0.52 1.09 t-0.69 0.82 t-0.74 0.59 l-0.1 0.06 l0.27 0.44 t0.66 1.1 t0.85 1.42 t0.85 1.41 t0.64 1.09 t0.25 0.42 l-3.66 0 l-3.78 -6.58 l0 6.6 l-3.34 0 l0 -14.18 z M36.52 17.28 l0.7 -0.32 q0.26 -0.12 0.62 -0.3 t0.7 -0.47 t0.58 -0.69 t0.24 -0.98 q0 -0.62 -0.18 -1.03 t-0.5 -0.66 t-0.75 -0.36 t-0.93 -0.11 l-0.23 0 t-0.25 0.02 l0 4.9 z M48.78 16.740000000000002 l3.76 -7.02 l3.62 0 l-3.78 6.88 l4.24 7.4 l-3.64 0 z M45.480000000000004 12.2 l-1.52 0 l1.3 -2.5 l3.46 0 l0 14.32 l-3.24 0 l0 -11.82 z M60.54 17.62 q-0.64 -0.26 -1.19 -0.58 t-0.95 -0.77 t-0.62 -1.06 t-0.22 -1.45 q0 -1.04 0.36 -1.83 t1.01 -1.33 t1.57 -0.82 t2.04 -0.28 q0.92 0 1.88 0.19 t2.3 0.65 l-1.36 2.44 q-1.3 -0.62 -2.74 -0.62 q-0.28 0 -0.58 0.06 t-0.54 0.21 t-0.4 0.41 t-0.16 0.68 q0 0.34 0.13 0.56 t0.33 0.38 t0.46 0.27 t0.52 0.21 l1.18 0.46 q0.76 0.3 1.39 0.63 t1.07 0.8 t0.68 1.15 t0.24 1.7 t-0.37 1.86 t-1.08 1.43 t-1.75 0.92 t-2.38 0.33 q-0.62 0 -1.14 -0.04 t-1.01 -0.14 t-0.98 -0.24 t-1.05 -0.36 l0.68 -2.8 q0.82 0.22 1.61 0.39 t1.61 0.17 q1.1 0 1.68 -0.29 t0.68 -1.11 q0.04 -0.42 -0.1 -0.7 t-0.4 -0.47 t-0.58 -0.31 l-0.64 -0.24 z M67.82 9.72 l3.48 0 l1.8 8.92 l2.22 -8.92 l3 0 l2.2 9.12 l1.94 -9.12 l3.18 0 l-0.14 0.61 t-0.38 1.62 t-0.55 2.29 t-0.63 2.62 t-0.63 2.63 t-0.56 2.29 t-0.4 1.61 l-0.15 0.61 l-3.4 0 l-2.1 -8.62 l-2.24 8.62 l-3.2 0 z M87.1 9.7 l8.42 0 q-0.2 0.76 -0.4 1.44 t-0.4 1.4 l-4.4 0 q0 0.08 0.02 0.23 t0.02 0.23 l0 2.1 l4.04 0 l0 2.86 l-4.04 0 l0 2.74 l-0.04 0.46 l5.28 0 l0 2.84 l-8.5 0 l0 -14.3 z M97.67999999999999 9.7 l3.18 0 l0 11.42 l2.3 0 l0.5 0.06 l0 -1.36 l2.7 -1.26 l0 5.44 l-8.68 0 l0 -14.3 z M108.36 9.7 l3.18 0 l0 11.42 l2.3 0 l0.5 0.06 l0 -1.36 l2.7 -1.26 l0 5.44 l-8.68 0 l0 -14.3 z"/>
  </g>
</svg>
